Coordinates
nRows=8
nColumns=24

# SIMM Motion File Header:
name Coordinates
datacolumns 24
datarows 8
otherdata 1
range 0.91224999999999989000 0.92924999999999924000
endheader
time	pelvis_tx	pelvis_ty	pelvis_tz	pelvis_tilt	pelvis_list	pelvis_rotation	hip_flexion_r	hip_adduction_r	hip_rotation_r	knee_angle_r	ankle_angle_r	subtalar_angle_r	mtp_angle_r	hip_flexion_l	hip_adduction_l	hip_rotation_l	knee_angle_l	ankle_angle_l	subtalar_angle_l	mtp_angle_l	lumbar_extension	lumbar_bending	lumbar_rotation
      0.91224999999999989000	      0.60078029335272987000	      1.03686202428602870000	      0.03948737593490050900	      4.96467506286262950000	     -1.23836541856350850000	      2.43484123569025580000	      5.52266269340097970000	      2.17979383891073920000	     -6.26356808561554420000	    -17.16549661498576300000	      6.20826644841383860000	      1.33289877666728950000	      1.19623297893169830000	     10.72098020795893800000	     -5.82301768145326280000	     -4.08770794220396020000	    -68.82305972219769800000	     -1.33683360888442480000	     -2.05593408216128990000	     -1.91751173451977030000	    -15.41723861875671300000	      3.98164182039499610000	     -2.08493192712125540000
      0.91474999999999962000	      0.60057520842148993000	      1.03725709525180900000	      0.03984741032581944100	      4.97394913476566010000	     -1.19900815495876860000	      2.37706626459468630000	      5.24951657670876860000	      2.17350831452135830000	     -6.18504888733945620000	    -16.96738720161882700000	      6.30852537249475010000	      1.32964900257427670000	      1.13685672618752110000	     11.00817216531846300000	     -5.75199513312105730000	     -4.08408253121842350000	    -68.77903163167410100000	     -1.12150756799701120000	     -2.05294940236835140000	     -1.95823960256560750000	    -15.43512161404303600000	      3.91497935004836650000	     -1.98813335423515960000
      0.91724999999999934000	      0.60036505061799006000	      1.03764534514527050000	      0.04020084363596215100	      4.98319519871572950000	     -1.15865330631593830000	      2.31813220902840640000	      4.97715018310212010000	      2.16549076328698530000	     -6.10505373253604680000	    -16.76900597062085700000	      6.38626494858533890000	      1.31460278439335010000	      1.11353281953257930000	     11.29171764126253300000	     -5.67656562624288430000	     -4.07677663935014410000	    -68.71838258932251600000	     -0.90994192666990681000	     -2.04780829826892270000	     -1.99768895455848660000	    -15.45360458165641200000	      3.84730611540615100000	     -1.89170467515944040000
      0.91974999999999907000	      0.60014966211619725000	      1.03802715895911370000	      0.04054791259154935700	      4.99252566084675740000	     -1.11786841197494710000	      2.25814672229821860000	      4.70540695645437700000	      2.15646903609226830000	     -6.02376619235720770000	    -16.56920034431570000000	      6.42042792124058880000	      1.27764124211161480000	      1.16015766686857710000	     11.57155546415220800000	     -5.59764586349563500000	     -4.06614218207862610000	    -68.64126090655830100000	     -0.70256170381815519000	     -2.04113017278770630000	     -2.03521869175063010000	    -15.47283221178991400000	      3.77924893653688490000	     -1.79561458853787030000
      0.92175000000000007000	      0.59997360699388869000	      1.03832756035975840000	      0.04082109433459382000	      4.99995174274393680000	     -1.08486969865867610000	      2.20942946089296970000	      4.48868574630875910000	      2.14844724116200900000	     -5.95787265077199550000	    -16.40886381717080100000	      6.42161612284504190000	      1.23354393253072340000	      1.23914553367327660000	     11.79285971272454100000	     -5.53207273789818910000	     -4.05548760557486080000	    -68.56775297871531900000	     -0.54028416461721596000	     -2.03472611031772080000	     -2.06354363562868580000	    -15.48863623114824700000	      3.72443842731516030000	     -1.71904450735107850000
      0.92424999999999979000	      0.59974903287543457000	      1.03869580869785130000	      0.04115690193731403500	      5.00902809683727670000	     -1.04263372450060570000	      2.14771074126758510000	      4.21901934814253290000	      2.13673247482764550000	     -5.87466071904438620000	    -16.20959520661126200000	      6.41546952357217220000	      1.16979561651584900000	      1.34902586661163390000	     12.06641501593862700000	     -5.44661803049472320000	     -4.03977597126174540000	    -68.46110962844052500000	     -0.34303427030271932000	     -2.02503320733942390000	     -2.09672459986050400000	    -15.50871469111489500000	      3.65487706255440560000	     -1.62394292048147590000
      0.92674999999999952000	      0.59951971438519980000	      1.03905487399644000000	      0.04148630108323852300	      5.01771396484011680000	     -0.99880432668465546000	      2.08519371057789950000	      3.95113346379479410000	      2.12245652982040460000	     -5.79094679773485590000	    -16.01367630742827700000	      6.43216509683943190000	      1.10975508154162930000	      1.42108251921358740000	     12.33666621568934100000	     -5.35692193804181560000	     -4.02185239447782110000	    -68.33814051358136500000	     -0.15214313413509314000	     -2.01449636381645680000	     -2.12744951068345540000	    -15.52892785259111000000	      3.58359737664585820000	     -1.52976571221617760000
      0.92924999999999924000	      0.59928584619831027000	      1.03940405694983510000	      0.04180925975300294600	      5.02595027597305770000	     -0.95331959645461772000	      2.02203217340526820000	      3.68521135283524930000	      2.10547258524348010000	     -5.70725505197262080000	    -15.82221537959516900000	      6.48962885660759260000	      1.06226888813983540000	      1.42665777649692480000	     12.60365183166561700000	     -5.26316698128971620000	     -4.00214674831045340000	    -68.19898836805745600000	      0.03251418123398672200	     -2.00406733947553000000	     -2.15605808079764700000	    -15.54917127543021000000	      3.51053953349124900000	     -1.43667789175163870000
